<svg width="45" height="45" viewBox="0 0 45 45" fill="none" xmlns="http://www.w3.org/2000/svg">
<circle cx="22.5" cy="22.5" r="21" stroke="#FFD600" stroke-width="3"/>
<path fill-rule="evenodd" clip-rule="evenodd" d="M32.5834 34.1872V34.1842L32.6106 34.1194L37.1291 11.3381V11.2658C37.1291 10.6978 36.9182 10.2021 36.4632 9.90526C36.0639 9.6446 35.6044 9.62652 35.2819 9.65063C34.9818 9.67777 34.6856 9.73842 34.399 9.83143C34.2768 9.87084 34.1561 9.91507 34.0374 9.96402L34.0178 9.97155L8.82585 19.854L8.81831 19.857C8.74172 19.8831 8.66676 19.9138 8.59382 19.9489C8.41465 20.0294 8.24276 20.1252 8.08003 20.2352C7.75609 20.4582 7.13985 20.9825 7.24382 21.8142C7.3297 22.5043 7.80431 22.9412 8.12523 23.1687C8.31466 23.3015 8.51832 23.4126 8.73243 23.5002L8.78065 23.5213L8.79571 23.5258L8.80626 23.5303L13.2149 25.0144C13.1998 25.2901 13.2269 25.5719 13.3007 25.8506L15.508 34.2264C15.6286 34.6829 15.8892 35.0902 16.2531 35.3911C16.6171 35.692 17.0661 35.8713 17.5372 35.9039C18.0083 35.9365 18.4778 35.8207 18.8797 35.5728C19.2816 35.3248 19.5957 34.9573 19.778 34.5217L23.2253 30.8363L29.1452 35.3745L29.2295 35.4106C29.7674 35.6457 30.2692 35.7195 30.7287 35.6577C31.1882 35.5944 31.5529 35.4016 31.8271 35.1831C32.1442 34.926 32.397 34.5984 32.5654 34.2264L32.5774 34.2007L32.5819 34.1917L32.5834 34.1872ZM15.4854 25.2751C15.461 25.1821 15.4668 25.0838 15.502 24.9944C15.5373 24.905 15.6001 24.8292 15.6813 24.7779L30.6293 15.2857C30.6293 15.2857 31.5092 14.7508 31.4775 15.2857C31.4775 15.2857 31.6342 15.3791 31.1626 15.8175C30.7166 16.2349 20.5088 26.0902 19.4752 27.0876C19.4177 27.1434 19.3774 27.2145 19.3592 27.2925L17.6928 33.6508L15.4854 25.2736V25.2751Z" fill="#FFD233"/>
</svg>
