<svg width="45" height="45" viewBox="0 0 45 45" fill="none" xmlns="http://www.w3.org/2000/svg">
<path d="M36.2231 31.8557H32.9383C31.696 31.8557 31.3218 30.8395 29.095 28.589C27.1489 26.6947 26.3269 26.4592 25.8346 26.4592C25.1538 26.4592 24.9681 26.6482 24.9681 27.5946V30.5778C24.9681 31.3847 24.709 31.8572 22.6218 31.8572C20.597 31.7198 18.6334 31.0985 16.8928 30.0445C15.1523 28.9905 13.6845 27.534 12.6105 25.7948C10.0604 22.5892 8.28604 18.8269 7.42856 14.807C7.42856 14.3098 7.61569 13.8592 8.5542 13.8592H11.8361C12.6796 13.8592 12.9833 14.2386 13.3144 15.1152C14.9079 19.8517 17.627 23.9718 18.731 23.9718C19.1542 23.9718 19.3385 23.7828 19.3385 22.7171V17.8382C19.1988 15.6124 18.0286 15.4249 18.0286 14.6195C18.0434 14.407 18.1396 14.2087 18.2969 14.0667C18.4541 13.9248 18.6599 13.8503 18.8706 13.8592H24.0296C24.7349 13.8592 24.9681 14.2139 24.9681 15.0658V21.6515C24.9681 22.3624 25.2704 22.5979 25.4834 22.5979C25.9066 22.5979 26.2319 22.3624 27.0078 21.5803C28.6708 19.5319 30.0295 17.2497 31.0411 14.8056C31.1446 14.5121 31.3404 14.2609 31.5984 14.0903C31.8565 13.9197 32.1627 13.839 32.4705 13.8606H35.7538C36.7384 13.8606 36.9471 14.3578 36.7384 15.0673C35.5442 17.769 34.0666 20.3336 32.3308 22.7171C31.9767 23.2623 31.8357 23.5458 32.3308 24.1855C32.6561 24.6827 33.8077 25.6538 34.5807 26.577C35.7063 27.7109 36.6405 29.0223 37.3473 30.4586C37.6294 31.3832 37.1601 31.8557 36.2231 31.8557Z" fill="#FFD233"/>
<circle cx="22.5" cy="22.5" r="21" stroke="#FFD600" stroke-width="3"/>
</svg>
